999
Generated by Autodesk CAM - http://cam.autodesk.com
0
SECTION
2
HEADER
9
$ACADVER
1
AC1006
9
$ANGBASE
50
0
9
$ANGDIR
70
0
0
ENDSEC
0
SECTION
2
BLOCKS
0
ENDSEC
9
$EXTMIN
10
-138.008
20
-129.841
30
0
9
$EXTMAX
10
138.008
20
129.841
30
15
0
SECTION
2
ENTITIES
0
LINE
8
1
62
1
10
127.858
20
2.666
30
0
11
127.858
21
3.263
31
0
0
LINE
8
1
62
1
10
127.858
20
3.263
30
0
11
116.008
21
3.263
31
0
0
LINE
8
1
62
1
10
116.008
20
3.263
30
0
11
116.008
21
-0.587
31
0
0
LINE
8
1
62
1
10
116.008
20
-0.587
30
0
11
127.858
21
-0.587
31
0
0
LINE
8
1
62
1
10
127.858
20
-0.587
30
0
11
127.858
21
2.666
31
0
0
LINE
8
1
62
1
10
129.906
20
16.263
30
0
11
129.158
21
16.263
31
0
0
LINE
8
1
62
1
10
129.158
20
16.263
30
0
11
129.008
21
16.263
31
0
0
LINE
8
1
62
1
10
129.008
20
16.263
30
0
11
129.008
21
4.413
31
0
0
LINE
8
1
62
1
10
129.008
20
4.413
30
0
11
132.858
21
4.413
31
0
0
LINE
8
1
62
1
10
132.858
20
4.413
30
0
11
132.858
21
16.263
31
0
0
LINE
8
1
62
1
10
132.858
20
16.263
30
0
11
129.906
21
16.263
31
0
0
LINE
8
1
62
1
10
129.906
20
40.263
30
0
11
129.158
21
40.263
31
0
0
LINE
8
1
62
1
10
129.158
20
40.263
30
0
11
129.008
21
40.263
31
0
0
LINE
8
1
62
1
10
129.008
20
40.263
30
0
11
129.008
21
28.413
31
0
0
LINE
8
1
62
1
10
129.008
20
28.413
30
0
11
132.858
21
28.413
31
0
0
LINE
8
1
62
1
10
132.858
20
28.413
30
0
11
132.858
21
40.263
31
0
0
LINE
8
1
62
1
10
132.858
20
40.263
30
0
11
129.906
21
40.263
31
0
0
LINE
8
1
62
1
10
129.008
20
53.011
30
0
11
129.008
21
52.413
31
0
0
LINE
8
1
62
1
10
129.008
20
52.413
30
0
11
132.858
21
52.413
31
0
0
LINE
8
1
62
1
10
132.858
20
52.413
30
0
11
132.858
21
64.263
31
0
0
LINE
8
1
62
1
10
132.858
20
64.263
30
0
11
129.008
21
64.263
31
0
0
LINE
8
1
62
1
10
129.008
20
64.263
30
0
11
129.008
21
53.011
31
0
0
LINE
8
1
62
1
10
116.008
20
66.011
30
0
11
116.008
21
65.413
31
0
0
LINE
8
1
62
1
10
116.008
20
65.413
30
0
11
127.858
21
65.413
31
0
0
LINE
8
1
62
1
10
127.858
20
65.413
30
0
11
127.858
21
69.263
31
0
0
LINE
8
1
62
1
10
127.858
20
69.263
30
0
11
116.008
21
69.263
31
0
0
LINE
8
1
62
1
10
116.008
20
69.263
30
0
11
116.008
21
66.011
31
0
0
LINE
8
1
62
1
10
62.008
20
66.311
30
0
11
62.008
21
65.563
31
0
0
LINE
8
1
62
1
10
62.008
20
65.563
30
0
11
62.008
21
65.413
31
0
0
LINE
8
1
62
1
10
62.008
20
65.413
30
0
11
73.858
21
65.413
31
0
0
LINE
8
1
62
1
10
73.858
20
65.413
30
0
11
73.858
21
69.263
31
0
0
LINE
8
1
62
1
10
73.858
20
69.263
30
0
11
62.008
21
69.263
31
0
0
LINE
8
1
62
1
10
62.008
20
69.263
30
0
11
62.008
21
66.311
31
0
0
LINE
8
1
62
1
10
19.261
20
65.413
30
0
11
19.858
21
65.413
31
0
0
LINE
8
1
62
1
10
19.858
20
65.413
30
0
11
19.858
21
69.263
31
0
0
LINE
8
1
62
1
10
19.858
20
69.263
30
0
11
8.008
21
69.263
31
0
0
LINE
8
1
62
1
10
8.008
20
69.263
30
0
11
8.008
21
65.413
31
0
0
LINE
8
1
62
1
10
8.008
20
65.413
30
0
11
19.261
21
65.413
31
0
0
LINE
8
1
62
1
10
5.961
20
52.413
30
0
11
6.708
21
52.413
31
0
0
LINE
8
1
62
1
10
6.708
20
52.413
30
0
11
6.858
21
52.413
31
0
0
LINE
8
1
62
1
10
6.858
20
52.413
30
0
11
6.858
21
64.263
31
0
0
LINE
8
1
62
1
10
6.858
20
64.263
30
0
11
3.008
21
64.263
31
0
0
LINE
8
1
62
1
10
3.008
20
64.263
30
0
11
3.008
21
52.413
31
0
0
LINE
8
1
62
1
10
3.008
20
52.413
30
0
11
5.961
21
52.413
31
0
0
LINE
8
1
62
1
10
5.961
20
28.413
30
0
11
6.708
21
28.413
31
0
0
LINE
8
1
62
1
10
6.708
20
28.413
30
0
11
6.858
21
28.413
31
0
0
LINE
8
1
62
1
10
6.858
20
28.413
30
0
11
6.858
21
40.263
31
0
0
LINE
8
1
62
1
10
6.858
20
40.263
30
0
11
3.008
21
40.263
31
0
0
LINE
8
1
62
1
10
3.008
20
40.263
30
0
11
3.008
21
28.413
31
0
0
LINE
8
1
62
1
10
3.008
20
28.413
30
0
11
5.961
21
28.413
31
0
0
LINE
8
1
62
1
10
6.858
20
15.666
30
0
11
6.858
21
16.263
31
0
0
LINE
8
1
62
1
10
6.858
20
16.263
30
0
11
3.008
21
16.263
31
0
0
LINE
8
1
62
1
10
3.008
20
16.263
30
0
11
3.008
21
4.413
31
0
0
LINE
8
1
62
1
10
3.008
20
4.413
30
0
11
6.858
21
4.413
31
0
0
LINE
8
1
62
1
10
6.858
20
4.413
30
0
11
6.858
21
15.666
31
0
0
LINE
8
1
62
1
10
19.858
20
2.675
30
0
11
19.858
21
3.263
31
0
0
LINE
8
1
62
1
10
19.858
20
3.263
30
0
11
8.008
21
3.263
31
0
0
LINE
8
1
62
1
10
8.008
20
3.263
30
0
11
8.008
21
-0.587
31
0
0
LINE
8
1
62
1
10
8.008
20
-0.587
30
0
11
19.858
21
-0.587
31
0
0
LINE
8
1
62
1
10
19.858
20
-0.587
30
0
11
19.858
21
2.675
31
0
0
LINE
8
1
62
1
10
62.008
20
0.311
30
0
11
62.008
21
-0.437
31
0
0
LINE
8
1
62
1
10
62.008
20
-0.437
30
0
11
62.008
21
-0.587
31
0
0
LINE
8
1
62
1
10
62.008
20
-0.587
30
0
11
73.858
21
-0.587
31
0
0
LINE
8
1
62
1
10
73.858
20
-0.587
30
0
11
73.858
21
3.263
31
0
0
LINE
8
1
62
1
10
73.858
20
3.263
30
0
11
62.008
21
3.263
31
0
0
LINE
8
1
62
1
10
62.008
20
3.263
30
0
11
62.008
21
0.311
31
0
0
LINE
8
1
62
1
10
33.221
20
-5.737
30
0
11
-2.067
21
-5.737
31
0
0
ARC
8
1
62
1
10
-2.067
20
-5.662
30
0
40
0.075
50
180
51
-90
0
LINE
8
1
62
1
10
-2.142
20
-5.662
30
0
11
-2.142
21
74.338
31
0
0
ARC
8
1
62
1
10
-2.067
20
74.338
30
0
40
0.075
50
90
51
180
0
LINE
8
1
62
1
10
-2.067
20
74.413
30
0
11
137.933
21
74.413
31
0
0
ARC
8
1
62
1
10
137.933
20
74.338
30
0
40
0.075
50
0
51
90
0
LINE
8
1
62
1
10
138.008
20
74.338
30
0
11
138.008
21
-5.662
31
0
0
ARC
8
1
62
1
10
137.933
20
-5.662
30
0
40
0.075
50
-90
51
0
0
LINE
8
1
62
1
10
137.933
20
-5.737
30
0
11
33.221
21
-5.737
31
0
0
LINE
8
1
62
1
10
11.745
20
-9.691
30
0
11
13.745
21
-9.691
31
0
0
ARC
8
1
62
1
10
13.745
20
-9.766
30
0
40
0.075
50
0
51
90
0
LINE
8
1
62
1
10
13.82
20
-9.766
30
0
11
13.82
21
-13.691
31
0
0
LINE
8
1
62
1
10
13.82
20
-13.691
30
0
11
55.67
21
-13.691
31
0
0
LINE
8
1
62
1
10
55.67
20
-13.691
30
0
11
55.67
21
-9.766
31
0
0
ARC
8
1
62
1
10
55.745
20
-9.766
30
0
40
0.075
50
90
51
180
0
LINE
8
1
62
1
10
55.745
20
-9.691
30
0
11
67.745
21
-9.691
31
0
0
ARC
8
1
62
1
10
67.745
20
-9.766
30
0
40
0.075
50
0
51
90
0
LINE
8
1
62
1
10
67.82
20
-9.766
30
0
11
67.82
21
-13.691
31
0
0
LINE
8
1
62
1
10
67.82
20
-13.691
30
0
11
109.67
21
-13.691
31
0
0
LINE
8
1
62
1
10
109.67
20
-13.691
30
0
11
109.67
21
-9.766
31
0
0
ARC
8
1
62
1
10
109.745
20
-9.766
30
0
40
0.075
50
90
51
180
0
LINE
8
1
62
1
10
109.745
20
-9.691
30
0
11
121.745
21
-9.691
31
0
0
ARC
8
1
62
1
10
121.745
20
-9.766
30
0
40
0.075
50
0
51
90
0
LINE
8
1
62
1
10
121.82
20
-9.766
30
0
11
121.82
21
-13.691
31
0
0
LINE
8
1
62
1
10
121.82
20
-13.691
30
0
11
126.745
21
-13.691
31
0
0
ARC
8
1
62
1
10
126.745
20
-13.766
30
0
40
0.075
50
0
51
90
0
LINE
8
1
62
1
10
126.82
20
-13.766
30
0
11
126.82
21
-129.766
31
0
0
ARC
8
1
62
1
10
126.745
20
-129.766
30
0
40
0.075
50
-90
51
0
0
LINE
8
1
62
1
10
126.745
20
-129.841
30
0
11
-3.255
21
-129.841
31
0
0
ARC
8
1
62
1
10
-3.255
20
-129.766
30
0
40
0.075
50
180
51
-90
0
LINE
8
1
62
1
10
-3.33
20
-129.766
30
0
11
-3.33
21
-13.766
31
0
0
ARC
8
1
62
1
10
-3.255
20
-13.766
30
0
40
0.075
50
90
51
180
0
LINE
8
1
62
1
10
-3.255
20
-13.691
30
0
11
1.67
21
-13.691
31
0
0
LINE
8
1
62
1
10
1.67
20
-13.691
30
0
11
1.67
21
-9.766
31
0
0
ARC
8
1
62
1
10
1.745
20
-9.766
30
0
40
0.075
50
90
51
180
0
LINE
8
1
62
1
10
1.745
20
-9.691
30
0
11
11.745
21
-9.691
31
0
0
ARC
8
1
62
1
10
-12.933
20
-9.285
30
0
40
0.075
50
0
51
90
0
LINE
8
1
62
1
10
-12.858
20
-9.285
30
0
11
-12.858
21
-13.21
31
0
0
LINE
8
1
62
1
10
-12.858
20
-13.21
30
0
11
-7.933
21
-13.21
31
0
0
ARC
8
1
62
1
10
-7.933
20
-13.285
30
0
40
0.075
50
0
51
90
0
LINE
8
1
62
1
10
-7.858
20
-13.285
30
0
11
-7.858
21
-129.285
31
0
0
ARC
8
1
62
1
10
-7.933
20
-129.285
30
0
40
0.075
50
-90
51
0
0
LINE
8
1
62
1
10
-7.933
20
-129.36
30
0
11
-137.933
21
-129.36
31
0
0
ARC
8
1
62
1
10
-137.933
20
-129.285
30
0
40
0.075
50
180
51
-90
0
LINE
8
1
62
1
10
-138.008
20
-129.285
30
0
11
-138.008
21
-13.285
31
0
0
ARC
8
1
62
1
10
-137.933
20
-13.285
30
0
40
0.075
50
90
51
180
0
LINE
8
1
62
1
10
-137.933
20
-13.21
30
0
11
-133.008
21
-13.21
31
0
0
LINE
8
1
62
1
10
-133.008
20
-13.21
30
0
11
-133.008
21
-9.285
31
0
0
ARC
8
1
62
1
10
-132.933
20
-9.285
30
0
40
0.075
50
90
51
180
0
LINE
8
1
62
1
10
-132.933
20
-9.21
30
0
11
-120.933
21
-9.21
31
0
0
ARC
8
1
62
1
10
-120.933
20
-9.285
30
0
40
0.075
50
0
51
90
0
LINE
8
1
62
1
10
-120.858
20
-9.285
30
0
11
-120.858
21
-13.21
31
0
0
LINE
8
1
62
1
10
-120.858
20
-13.21
30
0
11
-79.008
21
-13.21
31
0
0
LINE
8
1
62
1
10
-79.008
20
-13.21
30
0
11
-79.008
21
-9.285
31
0
0
ARC
8
1
62
1
10
-78.933
20
-9.285
30
0
40
0.075
50
90
51
180
0
LINE
8
1
62
1
10
-78.933
20
-9.21
30
0
11
-66.933
21
-9.21
31
0
0
ARC
8
1
62
1
10
-66.933
20
-9.285
30
0
40
0.075
50
0
51
90
0
LINE
8
1
62
1
10
-66.858
20
-9.285
30
0
11
-66.858
21
-13.21
31
0
0
LINE
8
1
62
1
10
-66.858
20
-13.21
30
0
11
-25.008
21
-13.21
31
0
0
LINE
8
1
62
1
10
-25.008
20
-13.21
30
0
11
-25.008
21
-9.285
31
0
0
ARC
8
1
62
1
10
-24.933
20
-9.285
30
0
40
0.075
50
90
51
180
0
LINE
8
1
62
1
10
-24.933
20
-9.21
30
0
11
-12.933
21
-9.21
31
0
0
LINE
8
1
62
1
10
-13.079
20
35.317
30
0
11
-10.903
21
35.317
31
0
0
ARC
8
1
62
1
10
-10.903
20
35.242
30
0
40
0.075
50
0
51
90
0
LINE
8
1
62
1
10
-10.828
20
35.242
30
0
11
-10.828
21
23.242
31
0
0
ARC
8
1
62
1
10
-10.903
20
23.242
30
0
40
0.075
50
-90
51
0
0
LINE
8
1
62
1
10
-10.903
20
23.167
30
0
11
-14.828
21
23.167
31
0
0
LINE
8
1
62
1
10
-14.828
20
23.167
30
0
11
-14.828
21
11.317
31
0
0
LINE
8
1
62
1
10
-14.828
20
11.317
30
0
11
-10.903
21
11.317
31
0
0
ARC
8
1
62
1
10
-10.903
20
11.242
30
0
40
0.075
50
0
51
90
0
LINE
8
1
62
1
10
-10.828
20
11.242
30
0
11
-10.828
21
-0.758
31
0
0
ARC
8
1
62
1
10
-10.903
20
-0.758
30
0
40
0.075
50
-90
51
0
0
LINE
8
1
62
1
10
-10.903
20
-0.833
30
0
11
-14.828
21
-0.833
31
0
0
LINE
8
1
62
1
10
-14.828
20
-0.833
30
0
11
-14.828
21
-1.758
31
0
0
ARC
8
1
62
1
10
-14.903
20
-1.758
30
0
40
0.075
50
-90
51
0
0
LINE
8
1
62
1
10
-14.903
20
-1.833
30
0
11
-130.903
21
-1.833
31
0
0
ARC
8
1
62
1
10
-130.903
20
-1.758
30
0
40
0.075
50
180
51
-90
0
LINE
8
1
62
1
10
-130.978
20
-1.758
30
0
11
-130.978
21
60.242
31
0
0
ARC
8
1
62
1
10
-130.903
20
60.242
30
0
40
0.075
50
90
51
180
0
LINE
8
1
62
1
10
-130.903
20
60.317
30
0
11
-14.903
21
60.317
31
0
0
ARC
8
1
62
1
10
-14.903
20
60.242
30
0
40
0.075
50
0
51
90
0
LINE
8
1
62
1
10
-14.828
20
60.242
30
0
11
-14.828
21
59.317
31
0
0
LINE
8
1
62
1
10
-14.828
20
59.317
30
0
11
-10.903
21
59.317
31
0
0
ARC
8
1
62
1
10
-10.903
20
59.242
30
0
40
0.075
50
0
51
90
0
LINE
8
1
62
1
10
-10.828
20
59.242
30
0
11
-10.828
21
47.242
31
0
0
ARC
8
1
62
1
10
-10.903
20
47.242
30
0
40
0.075
50
-90
51
0
0
LINE
8
1
62
1
10
-10.903
20
47.167
30
0
11
-14.828
21
47.167
31
0
0
LINE
8
1
62
1
10
-14.828
20
47.167
30
0
11
-14.828
21
35.317
31
0
0
LINE
8
1
62
1
10
-14.828
20
35.317
30
0
11
-13.828
21
35.317
31
0
0
LINE
8
1
62
1
10
-13.828
20
35.317
30
0
11
-13.079
21
35.317
31
0
0
LINE
8
1
62
1
10
-14.594
20
67.691
30
0
11
-14.596
21
67.691
31
0
0
LINE
8
1
62
1
10
-14.596
20
67.691
30
0
11
-130.596
21
67.691
31
0
0
ARC
8
1
62
1
10
-130.596
20
67.766
30
0
40
0.075
50
180
51
-90
0
LINE
8
1
62
1
10
-130.671
20
67.766
30
0
11
-130.671
21
68.691
31
0
0
LINE
8
1
62
1
10
-130.671
20
68.691
30
0
11
-134.596
21
68.691
31
0
0
ARC
8
1
62
1
10
-134.596
20
68.766
30
0
40
0.075
50
180
51
-90
0
LINE
8
1
62
1
10
-134.671
20
68.766
30
0
11
-134.671
21
80.766
31
0
0
ARC
8
1
62
1
10
-134.596
20
80.766
30
0
40
0.075
50
90
51
180
0
LINE
8
1
62
1
10
-134.596
20
80.841
30
0
11
-130.671
21
80.841
31
0
0
LINE
8
1
62
1
10
-130.671
20
80.841
30
0
11
-130.671
21
92.691
31
0
0
LINE
8
1
62
1
10
-130.671
20
92.691
30
0
11
-134.596
21
92.691
31
0
0
ARC
8
1
62
1
10
-134.596
20
92.766
30
0
40
0.075
50
180
51
-90
0
LINE
8
1
62
1
10
-134.671
20
92.766
30
0
11
-134.671
21
104.766
31
0
0
ARC
8
1
62
1
10
-134.596
20
104.766
30
0
40
0.075
50
90
51
180
0
LINE
8
1
62
1
10
-134.596
20
104.841
30
0
11
-130.671
21
104.841
31
0
0
LINE
8
1
62
1
10
-130.671
20
104.841
30
0
11
-130.671
21
116.691
31
0
0
LINE
8
1
62
1
10
-130.671
20
116.691
30
0
11
-134.596
21
116.691
31
0
0
ARC
8
1
62
1
10
-134.596
20
116.766
30
0
40
0.075
50
180
51
-90
0
LINE
8
1
62
1
10
-134.671
20
116.766
30
0
11
-134.671
21
128.766
31
0
0
ARC
8
1
62
1
10
-134.596
20
128.766
30
0
40
0.075
50
90
51
180
0
LINE
8
1
62
1
10
-134.596
20
128.841
30
0
11
-130.671
21
128.841
31
0
0
LINE
8
1
62
1
10
-130.671
20
128.841
30
0
11
-130.671
21
129.766
31
0
0
ARC
8
1
62
1
10
-130.596
20
129.766
30
0
40
0.075
50
90
51
180
0
LINE
8
1
62
1
10
-130.596
20
129.841
30
0
11
-14.596
21
129.841
31
0
0
ARC
8
1
62
1
10
-14.596
20
129.766
30
0
40
0.075
50
0
51
90
0
LINE
8
1
62
1
10
-14.521
20
129.766
30
0
11
-14.521
21
67.766
31
0
0
ARC
8
1
62
1
10
-14.596
20
67.766
30
0
40
0.075
50
-88.644084
51
0
0
ENDSEC
0
EOF
