999
"DXF R12 Output" (www.mydxf.blogspot.com)
 0 
SECTION
 2 
HEADER
 9 
$ACADVER
 1 
AC1009
 9 
$EXTMIN
 10 
 0 
 20 
 0 
 9 
$EXTMAX
 10 
 8.5 
 20 
 11 
 0 
ENDSEC
 0 
SECTION
 2 
ENTITIES
0
LINE
8
Layer 1
10
0.846666
20
317.647000
11
-0.846666
21
315.953000
0
LINE
8
Layer 1
10
0.000000
20
318.211000
11
0.000000
21
315.389000
0
LINE
8
Layer 1
10
2.257780
20
315.671000
11
1.128890
21
314.542110
0
LINE
8
Layer 1
10
1.693330
20
316.236000
11
0.564440
21
315.107110
0
LINE
8
Layer 1
10
1.128890
20
316.800000
11
0.000000
21
315.671110
0
LINE
8
1
10
183.184000
20
167.525000
11
209.851000
21
167.525000
0
LINE
8
1
10
209.936000
20
167.440000
11
209.911009
21
167.500347
0
LINE
8
1
10
209.911009
20
167.500347
11
209.850665
21
167.525344
0
LINE
8
1
10
209.936000
20
167.440000
11
209.936000
21
165.391000
0
LINE
8
1
10
209.936000
20
165.391000
11
214.117000
21
165.391000
0
LINE
8
1
10
214.203000
20
165.306000
11
214.117665
21
165.391316
0
LINE
8
1
10
214.203000
20
165.307000
11
214.203000
21
161.039000
0
LINE
8
1
10
214.117000
20
160.954000
11
214.177345
21
160.978996
0
LINE
8
1
10
214.177345
20
160.978996
11
214.202336
21
161.039344
0
LINE
8
1
10
214.117000
20
160.955000
11
209.936000
21
160.955000
0
LINE
8
1
10
209.936000
20
160.955000
11
209.936000
21
154.726000
0
LINE
8
1
10
209.936000
20
154.726000
11
214.117000
21
154.726000
0
LINE
8
1
10
214.203000
20
154.640000
11
214.178009
21
154.700347
0
LINE
8
1
10
214.178009
20
154.700347
11
214.117665
21
154.725344
0
LINE
8
1
10
214.203000
20
154.639000
11
214.203000
21
150.374000
0
LINE
8
1
10
214.117000
20
150.288000
11
214.177345
21
150.312996
0
LINE
8
1
10
214.177345
20
150.312996
11
214.202336
21
150.373344
0
LINE
8
1
10
214.117000
20
150.287000
11
209.936000
21
150.287000
0
LINE
8
1
10
209.936000
20
150.287000
11
209.936000
21
148.241000
0
LINE
8
1
10
209.851000
20
148.154000
11
209.936336
21
148.239316
0
LINE
8
1
10
209.851000
20
148.153000
11
103.184000
21
148.153000
0
LINE
8
1
10
103.099000
20
148.240000
11
103.184333
21
148.154684
0
LINE
8
1
10
103.099000
20
148.241000
11
103.099000
21
150.287000
0
LINE
8
1
10
103.099000
20
150.287000
11
98.917500
21
150.287000
0
LINE
8
1
10
98.832200
20
150.373000
11
98.857190
21
150.312654
0
LINE
8
1
10
98.857190
20
150.312654
11
98.917533
21
150.287656
0
LINE
8
1
10
98.832200
20
150.374000
11
98.832200
21
154.639000
0
LINE
8
1
10
98.917500
20
154.725000
11
98.857157
21
154.700002
0
LINE
8
1
10
98.857157
20
154.700002
11
98.832167
21
154.639656
0
LINE
8
1
10
98.917500
20
154.726000
11
103.099000
21
154.726000
0
LINE
8
1
10
103.099000
20
154.726000
11
103.099000
21
160.955000
0
LINE
8
1
10
103.099000
20
160.955000
11
98.917500
21
160.955000
0
LINE
8
1
10
98.832200
20
161.040000
11
98.857190
21
160.979654
0
LINE
8
1
10
98.857190
20
160.979654
11
98.917533
21
160.954656
0
LINE
8
1
10
98.832200
20
161.039000
11
98.832200
21
165.307000
0
LINE
8
1
10
98.917500
20
165.392000
11
98.832167
21
165.306684
0
LINE
8
1
10
98.917500
20
165.391000
11
103.099000
21
165.391000
0
LINE
8
1
10
103.099000
20
165.391000
11
103.099000
21
167.440000
0
LINE
8
1
10
103.184000
20
167.525000
11
103.123657
21
167.500002
0
LINE
8
1
10
103.123657
20
167.500002
11
103.098667
21
167.439656
0
LINE
8
1
10
103.184000
20
167.525000
11
183.184000
21
167.525000
0
LINE
8
1
10
185.755000
20
183.391000
11
186.574000
21
183.391000
0
LINE
8
1
10
186.574000
20
183.391000
11
186.745000
21
183.391000
0
LINE
8
1
10
186.745000
20
183.391000
11
186.745000
21
187.486000
0
LINE
8
1
10
186.745000
20
187.486000
11
182.649000
21
187.486000
0
LINE
8
1
10
182.649000
20
187.486000
11
182.649000
21
183.391000
0
LINE
8
1
10
182.649000
20
183.391000
11
185.755000
21
183.391000
0
LINE
8
1
10
194.305000
20
187.486000
11
193.486000
21
187.486000
0
LINE
8
1
10
193.486000
20
187.486000
11
193.315000
21
187.486000
0
LINE
8
1
10
193.315000
20
187.486000
11
193.315000
21
183.391000
0
LINE
8
1
10
193.315000
20
183.391000
11
197.411000
21
183.391000
0
LINE
8
1
10
197.411000
20
183.391000
11
197.411000
21
187.486000
0
LINE
8
1
10
197.411000
20
187.486000
11
194.305000
21
187.486000
0
LINE
8
1
10
187.272000
20
258.762000
11
187.920000
21
258.762000
0
LINE
8
1
10
187.920000
20
258.762000
11
187.920000
21
262.859000
0
LINE
8
1
10
187.920000
20
262.859000
11
183.824000
21
262.859000
0
LINE
8
1
10
183.824000
20
262.859000
11
183.824000
21
258.762000
0
LINE
8
1
10
183.824000
20
258.762000
11
187.272000
21
258.762000
0
LINE
8
1
10
193.383000
20
266.229000
11
196.008000
21
266.229000
0
LINE
8
1
10
196.092000
20
266.158000
11
196.007963
21
266.228519
0
LINE
8
1
10
196.092000
20
266.159000
11
211.639600
21
177.987200
0
LINE
8
1
10
211.555000
20
177.887000
11
211.620374
21
177.917485
0
LINE
8
1
10
211.620374
20
177.917485
11
211.639037
21
177.987161
0
LINE
8
1
10
211.555000
20
177.888000
11
94.776700
21
177.888000
0
LINE
8
1
10
94.691400
20
177.972000
11
94.716390
21
177.911654
0
LINE
8
1
10
94.716390
20
177.911654
11
94.776733
21
177.886656
0
LINE
8
1
10
94.691400
20
177.973000
11
94.691400
21
185.231000
0
LINE
8
1
10
94.691400
20
185.231000
11
91.065810
21
181.607270
0
LINE
8
1
10
90.920700
20
181.667000
11
90.973378
21
181.588164
0
LINE
8
1
10
90.973378
20
181.588164
11
91.066372
21
181.606661
0
LINE
8
1
10
90.920700
20
181.667000
11
90.920700
21
195.609000
0
LINE
8
1
10
91.066400
20
195.670000
11
90.973406
21
195.688497
0
LINE
8
1
10
90.973406
20
195.688497
11
90.920728
21
195.609661
0
LINE
8
1
10
91.065800
20
195.671000
11
94.691390
21
192.044450
0
LINE
8
1
10
94.691400
20
192.044000
11
94.691400
21
199.306000
0
LINE
8
1
10
94.776700
20
199.391000
11
94.716357
21
199.366002
0
LINE
8
1
10
94.716357
20
199.366002
11
94.691367
21
199.305656
0
LINE
8
1
10
94.776700
20
199.391000
11
121.710000
21
199.391000
0
LINE
8
1
10
121.739000
20
199.385000
11
121.709813
21
199.390080
0
LINE
8
1
10
121.740000
20
199.385000
11
131.381580
21
195.876980
0
LINE
8
1
10
131.381000
20
195.877000
11
133.566560
21
201.877040
0
LINE
8
1
10
133.647000
20
201.935000
11
133.566812
21
201.878838
0
LINE
8
1
10
133.647000
20
201.933000
11
150.030000
21
201.933000
0
LINE
8
1
10
150.115000
20
201.849000
11
150.090010
21
201.909346
0
LINE
8
1
10
150.090010
20
201.909346
11
150.029667
21
201.934344
0
LINE
8
1
10
150.115000
20
201.849000
11
150.115000
21
193.721000
0
LINE
8
1
10
150.115000
20
193.721000
11
160.291000
21
193.721000
0
LINE
8
1
10
160.291000
20
193.721000
11
160.291000
21
201.849000
0
LINE
8
1
10
160.377000
20
201.935000
11
160.316657
21
201.910002
0
LINE
8
1
10
160.316657
20
201.910002
11
160.291667
21
201.849656
0
LINE
8
1
10
160.377000
20
201.933000
11
176.759000
21
201.933000
0
LINE
8
1
10
176.839000
20
201.878000
11
176.758812
21
201.934162
0
LINE
8
1
10
176.840000
20
201.877000
11
178.650170
21
196.904250
0
LINE
8
1
10
178.650000
20
196.904000
11
188.212530
21
200.383800
0
LINE
8
1
10
188.212000
20
200.384000
11
164.287800
21
266.113800
0
LINE
8
1
10
164.368000
20
266.229000
11
164.298098
21
266.192612
0
LINE
8
1
10
164.298098
20
266.192612
11
164.287812
21
266.114480
0
LINE
8
1
10
164.368000
20
266.229000
11
170.597000
21
266.229000
0
LINE
8
1
10
170.597000
20
266.229000
11
170.597000
21
269.344000
0
LINE
8
1
10
170.683000
20
269.429000
11
170.597667
21
269.343667
0
LINE
8
1
10
170.683000
20
269.429000
11
177.211000
21
269.429000
0
LINE
8
1
10
177.296000
20
269.344000
11
177.210667
21
269.429333
0
LINE
8
1
10
177.296000
20
269.344000
11
177.296000
21
266.229000
0
LINE
8
1
10
177.296000
20
266.229000
11
183.654000
21
266.229000
0
LINE
8
1
10
183.654000
20
266.229000
11
183.654000
21
269.344000
0
LINE
8
1
10
183.739000
20
269.429000
11
183.653667
21
269.343667
0
LINE
8
1
10
183.739000
20
269.429000
11
190.267000
21
269.429000
0
LINE
8
1
10
190.352000
20
269.344000
11
190.266667
21
269.429333
0
LINE
8
1
10
190.352000
20
269.344000
11
190.352000
21
266.229000
0
LINE
8
1
10
190.352000
20
266.229000
11
193.383000
21
266.229000
0
LINE
8
1
10
17.150100
20
290.861000
11
17.969400
21
290.861000
0
LINE
8
1
10
17.969400
20
290.861000
11
18.140100
21
290.861000
0
LINE
8
1
10
18.140100
20
290.861000
11
18.140100
21
294.957000
0
LINE
8
1
10
18.140100
20
294.957000
11
14.043900
21
294.957000
0
LINE
8
1
10
14.043900
20
294.957000
11
14.043900
21
290.861000
0
LINE
8
1
10
14.043900
20
290.861000
11
17.150100
21
290.861000
0
LINE
8
1
10
18.962500
20
284.482000
11
8.931500
21
284.482000
0
LINE
8
1
10
8.847520
20
284.554000
11
8.931557
21
284.483484
0
LINE
8
1
10
8.847390
20
284.554000
11
5.872490
21
301.428000
0
LINE
8
1
10
5.956630
20
301.527000
11
5.891262
21
301.496519
0
LINE
8
1
10
5.891262
20
301.496519
11
5.872593
21
301.426851
0
LINE
8
1
10
5.956590
20
301.528000
11
11.697600
21
301.528000
0
LINE
8
1
10
11.782800
20
301.442000
11
11.697467
21
301.527333
0
LINE
8
1
10
11.782800
20
301.442000
11
11.782800
21
298.327000
0
LINE
8
1
10
11.782800
20
298.327000
11
18.140100
21
298.327000
0
LINE
8
1
10
18.140100
20
298.327000
11
18.140100
21
301.442000
0
LINE
8
1
10
18.225400
20
301.527000
11
18.165059
21
301.502008
0
LINE
8
1
10
18.165059
20
301.502008
11
18.140065
21
301.441667
0
LINE
8
1
10
18.225300
20
301.528000
11
24.753400
21
301.528000
0
LINE
8
1
10
24.838700
20
301.442000
11
24.753400
21
301.527000
0
LINE
8
1
10
24.838700
20
301.442000
11
24.838700
21
298.327000
0
LINE
8
1
10
24.838700
20
298.327000
11
31.196000
21
298.327000
0
LINE
8
1
10
31.196000
20
298.327000
11
31.196000
21
301.442000
0
LINE
8
1
10
31.281400
20
301.527000
11
31.196067
21
301.441667
0
LINE
8
1
10
31.281500
20
301.528000
11
37.595900
21
301.528000
0
LINE
8
1
10
37.676300
20
301.471000
11
37.596112
21
301.527148
0
LINE
8
1
10
37.676100
20
301.472000
11
41.647250
21
290.559000
0
LINE
8
1
10
41.647200
20
290.559000
11
51.874400
21
290.559000
0
LINE
8
1
10
51.874400
20
290.559000
11
54.003480
21
296.409460
0
LINE
8
1
10
54.084600
20
296.465000
11
54.004415
21
296.408855
0
LINE
8
1
10
54.084500
20
296.465000
11
63.364500
21
296.465000
0
LINE
8
1
10
63.444800
20
296.351000
11
63.434511
21
296.429128
0
LINE
8
1
10
63.434511
20
296.429128
11
63.364612
21
296.465514
0
LINE
8
1
10
63.444700
20
296.351000
11
59.144770
21
284.538600
0
LINE
8
1
10
59.064900
20
284.483000
11
59.145085
21
284.539145
0
LINE
8
1
10
59.064800
20
284.482000
11
18.962500
21
284.482000
0
LINE
8
1
10
89.035500
20
304.539000
11
89.035500
21
303.891000
0
LINE
8
1
10
89.035500
20
303.891000
11
93.131700
21
303.891000
0
LINE
8
1
10
93.131700
20
303.891000
11
93.131700
21
307.987000
0
LINE
8
1
10
93.131700
20
307.987000
11
89.035500
21
307.987000
0
LINE
8
1
10
89.035500
20
307.987000
11
89.035500
21
304.539000
0
LINE
8
1
10
68.345500
20
300.547000
11
65.527230
21
308.288910
0
LINE
8
1
10
65.527300
20
308.289000
11
55.300100
21
308.289000
0
LINE
8
1
10
55.300100
20
308.289000
11
53.171020
21
302.439380
0
LINE
8
1
10
53.091100
20
302.383000
11
53.171288
21
302.439151
0
LINE
8
1
10
53.091200
20
302.383000
11
43.811100
21
302.383000
0
LINE
8
1
10
43.730900
20
302.497000
11
43.741181
21
302.418865
0
LINE
8
1
10
43.741181
20
302.418865
11
43.811085
21
302.382474
0
LINE
8
1
10
43.731000
20
302.497000
11
48.029810
21
314.309400
0
LINE
8
1
10
48.110800
20
314.366000
11
48.030615
21
314.309858
0
LINE
8
1
10
48.110800
20
314.366000
11
98.244100
21
314.366000
0
LINE
8
1
10
98.328100
20
314.295000
11
98.244063
21
314.365513
0
LINE
8
1
10
98.328200
20
314.295000
11
101.303380
21
297.420100
0
LINE
8
1
10
101.219000
20
297.320000
11
101.284368
21
297.350481
0
LINE
8
1
10
101.284368
20
297.350481
11
101.303037
21
297.420149
0
LINE
8
1
10
101.219000
20
297.320000
11
95.478400
21
297.320000
0
LINE
8
1
10
95.392900
20
297.406000
11
95.478233
21
297.320667
0
LINE
8
1
10
95.392800
20
297.406000
11
95.392800
21
300.520000
0
LINE
8
1
10
95.392800
20
300.520000
11
89.035500
21
300.520000
0
LINE
8
1
10
89.035500
20
300.520000
11
89.035500
21
297.406000
0
LINE
8
1
10
88.950200
20
297.320000
11
89.010541
21
297.344992
0
LINE
8
1
10
89.010541
20
297.344992
11
89.035535
21
297.405333
0
LINE
8
1
10
88.950300
20
297.320000
11
82.422200
21
297.320000
0
LINE
8
1
10
82.336900
20
297.406000
11
82.361895
21
297.345660
0
LINE
8
1
10
82.361895
20
297.345660
11
82.422235
21
297.320667
0
LINE
8
1
10
82.337000
20
297.406000
11
82.337000
21
300.520000
0
LINE
8
1
10
82.337000
20
300.520000
11
75.979600
21
300.520000
0
LINE
8
1
10
75.979600
20
300.520000
11
75.979600
21
297.406000
0
LINE
8
1
10
75.894200
20
297.320000
11
75.979533
21
297.405333
0
LINE
8
1
10
75.894100
20
297.320000
11
69.579700
21
297.320000
0
LINE
8
1
10
69.499400
20
297.376000
11
69.579585
21
297.319852
0
LINE
8
1
10
69.499500
20
297.377000
11
68.345490
21
300.546920
0
LINE
8
1
10
143.454000
20
292.132000
11
144.092000
21
292.132000
0
LINE
8
1
10
144.092000
20
292.132000
11
144.092000
21
296.228000
0
LINE
8
1
10
144.092000
20
296.228000
11
139.996000
21
296.228000
0
LINE
8
1
10
139.996000
20
296.228000
11
139.996000
21
292.132000
0
LINE
8
1
10
139.996000
20
292.132000
11
143.454000
21
292.132000
0
LINE
8
1
10
150.125000
20
220.856000
11
149.487000
21
220.856000
0
LINE
8
1
10
149.487000
20
220.856000
11
149.487000
21
216.761000
0
LINE
8
1
10
149.487000
20
216.761000
11
153.583000
21
216.761000
0
LINE
8
1
10
153.583000
20
216.761000
11
153.583000
21
220.856000
0
LINE
8
1
10
153.583000
20
220.856000
11
150.125000
21
220.856000
0
LINE
8
1
10
138.820000
20
217.399000
11
138.820000
21
216.761000
0
LINE
8
1
10
138.820000
20
216.761000
11
142.916000
21
216.761000
0
LINE
8
1
10
142.916000
20
216.761000
11
142.916000
21
220.856000
0
LINE
8
1
10
142.916000
20
220.856000
11
138.820000
21
220.856000
0
LINE
8
1
10
138.820000
20
220.856000
11
138.820000
21
217.399000
0
LINE
8
1
10
91.048700
20
211.255000
11
50.948500
21
211.255000
0
LINE
8
1
10
50.863200
20
211.342000
11
50.948533
21
211.256684
0
LINE
8
1
10
50.863300
20
211.343000
11
50.863300
21
218.601000
0
LINE
8
1
10
50.863300
20
218.601000
11
47.237590
21
214.977270
0
LINE
8
1
10
47.091400
20
215.036000
11
47.144078
21
214.957161
0
LINE
8
1
10
47.144078
20
214.957161
11
47.237075
21
214.975661
0
LINE
8
1
10
47.091400
20
215.037000
11
47.091400
21
228.979000
0
LINE
8
1
10
47.237100
20
229.039000
11
47.144103
21
229.057500
0
LINE
8
1
10
47.144103
20
229.057500
11
47.091425
21
228.978661
0
LINE
8
1
10
47.237600
20
229.041000
11
50.863310
21
225.414450
0
LINE
8
1
10
50.863300
20
225.414000
11
50.863300
21
232.676000
0
LINE
8
1
10
50.948500
20
232.760000
11
50.863167
21
232.674684
0
LINE
8
1
10
50.948500
20
232.760000
11
77.881800
21
232.760000
0
LINE
8
1
10
77.911000
20
232.755000
11
77.881813
21
232.760080
0
LINE
8
1
10
77.910600
20
232.755000
11
87.553250
21
229.246980
0
LINE
8
1
10
87.553300
20
229.247000
11
89.737840
21
235.247040
0
LINE
8
1
10
89.817800
20
235.304000
11
89.737612
21
235.247866
0
LINE
8
1
10
89.817800
20
235.303000
11
106.201000
21
235.303000
0
LINE
8
1
10
106.286000
20
235.219000
11
106.261010
21
235.279346
0
LINE
8
1
10
106.261010
20
235.279346
11
106.200667
21
235.304344
0
LINE
8
1
10
106.286000
20
235.219000
11
106.286000
21
227.091000
0
LINE
8
1
10
106.286000
20
227.091000
11
116.462000
21
227.091000
0
LINE
8
1
10
116.462000
20
227.091000
11
116.462000
21
235.219000
0
LINE
8
1
10
116.547000
20
235.304000
11
116.486657
21
235.279002
0
LINE
8
1
10
116.486657
20
235.279002
11
116.461667
21
235.218656
0
LINE
8
1
10
116.547000
20
235.303000
11
132.930000
21
235.303000
0
LINE
8
1
10
133.010000
20
235.248000
11
132.929812
21
235.304134
0
LINE
8
1
10
133.010000
20
235.247000
11
134.821300
21
230.274250
0
LINE
8
1
10
134.822000
20
230.274000
11
144.383680
21
233.753800
0
LINE
8
1
10
144.383000
20
233.754000
11
120.459700
21
299.483500
0
LINE
8
1
10
120.540000
20
299.599000
11
120.470100
21
299.562613
0
LINE
8
1
10
120.470100
20
299.562613
11
120.459812
21
299.484483
0
LINE
8
1
10
120.540000
20
299.599000
11
126.769000
21
299.599000
0
LINE
8
1
10
126.769000
20
299.599000
11
126.769000
21
302.713000
0
LINE
8
1
10
126.855000
20
302.799000
11
126.769667
21
302.713667
0
LINE
8
1
10
126.855000
20
302.799000
11
133.382000
21
302.799000
0
LINE
8
1
10
133.468000
20
302.713000
11
133.443005
21
302.773340
0
LINE
8
1
10
133.443005
20
302.773340
11
133.382664
21
302.798333
0
LINE
8
1
10
133.468000
20
302.713000
11
133.468000
21
299.599000
0
LINE
8
1
10
133.468000
20
299.599000
11
139.825000
21
299.599000
0
LINE
8
1
10
139.825000
20
299.599000
11
139.825000
21
302.713000
0
LINE
8
1
10
139.911000
20
302.799000
11
139.825667
21
302.713667
0
LINE
8
1
10
139.911000
20
302.799000
11
146.439000
21
302.799000
0
LINE
8
1
10
146.524000
20
302.713000
11
146.438667
21
302.798333
0
LINE
8
1
10
146.524000
20
302.713000
11
146.524000
21
299.599000
0
LINE
8
1
10
146.524000
20
299.599000
11
152.179000
21
299.599000
0
LINE
8
1
10
152.263000
20
299.528000
11
152.178966
21
299.598513
0
LINE
8
1
10
152.264000
20
299.528000
11
167.810500
21
211.356500
0
LINE
8
1
10
167.726000
20
211.256000
11
167.791361
21
211.286476
0
LINE
8
1
10
167.791361
20
211.286476
11
167.810037
21
211.356132
0
LINE
8
1
10
167.726000
20
211.255000
11
91.048700
21
211.255000
0
LINE
8
1
10
47.726900
20
166.799000
11
47.684228
21
166.725097
0
LINE
8
1
10
47.727700
20
166.800000
11
58.350500
21
172.933250
0
LINE
8
1
10
58.350500
20
172.933000
11
58.350500
21
199.817000
0
LINE
8
1
10
58.437200
20
199.903000
11
58.351884
21
199.817664
0
LINE
8
1
10
58.438000
20
199.903000
11
65.902800
21
199.903000
0
LINE
8
1
10
65.964200
20
199.757000
11
65.982697
21
199.849994
0
LINE
8
1
10
65.982697
20
199.849994
11
65.903861
21
199.902672
0
LINE
8
1
10
65.964900
20
199.757000
11
62.338350
21
196.131410
0
LINE
8
1
10
62.338300
20
196.131000
11
75.868100
21
196.131000
0
LINE
8
1
10
75.868100
20
196.131000
11
72.244370
21
199.756590
0
LINE
8
1
10
72.303900
20
199.903000
11
72.225061
21
199.850322
0
LINE
8
1
10
72.225061
20
199.850322
11
72.243561
21
199.757325
0
LINE
8
1
10
72.303600
20
199.903000
11
79.771200
21
199.903000
0
LINE
8
1
10
79.855900
20
199.817000
11
79.830904
21
199.877345
0
LINE
8
1
10
79.830904
20
199.877345
11
79.770556
21
199.902336
0
LINE
8
1
10
79.855900
20
199.817000
11
79.855900
21
145.798000
0
LINE
8
1
10
79.741400
20
145.718000
11
79.819535
21
145.728281
0
LINE
8
1
10
79.819535
20
145.728281
11
79.855926
21
145.798185
0
LINE
8
1
10
79.740100
20
145.718000
11
47.741800
21
157.365000
0
LINE
8
1
10
47.684200
20
157.446000
11
47.740362
21
157.365812
0
LINE
8
1
10
47.685400
20
157.446000
11
47.685400
21
166.725000
0
LINE
8
1
10
29.700300
20
149.532000
11
22.232700
21
149.532000
0
LINE
8
1
10
22.172300
20
149.677000
11
22.153800
21
149.584003
0
LINE
8
1
10
22.153800
20
149.584003
11
22.232639
21
149.531325
0
LINE
8
1
10
22.173400
20
149.677000
11
25.797130
21
153.302420
0
LINE
8
1
10
25.797100
20
153.302000
11
12.267400
21
153.302000
0
LINE
8
1
10
12.267400
20
153.302000
11
15.893950
21
149.676580
0
LINE
8
1
10
15.832700
20
149.531000
11
15.911536
21
149.583678
0
LINE
8
1
10
15.911536
20
149.583678
11
15.893039
21
149.676672
0
LINE
8
1
10
15.831900
20
149.532000
11
8.367100
21
149.532000
0
LINE
8
1
10
8.280680
20
149.617000
11
8.365996
21
149.531667
0
LINE
8
1
10
8.279610
20
149.617000
11
8.279610
21
203.635000
0
LINE
8
1
10
8.395210
20
203.715000
11
8.317074
21
203.704718
0
LINE
8
1
10
8.317074
20
203.704718
11
8.280684
21
203.634812
0
LINE
8
1
10
8.395320
20
203.715000
11
40.393620
21
192.068300
0
LINE
8
1
10
40.451300
20
191.988000
11
40.395166
21
192.068185
0
LINE
8
1
10
40.450100
20
191.988000
11
40.450100
21
182.708000
0
LINE
8
1
10
40.408700
20
182.634000
11
40.451344
21
182.707900
0
LINE
8
1
10
40.407800
20
182.634000
11
29.785000
21
176.500470
0
LINE
8
1
10
29.784900
20
176.501000
11
29.784900
21
149.617000
0
LINE
8
1
10
29.699300
20
149.531000
11
29.759646
21
149.555990
0
LINE
8
1
10
29.759646
20
149.555990
11
29.784644
21
149.616333
0
LINE
8
1
10
42.068400
20
254.754000
11
8.625380
21
254.754000
0
LINE
8
1
10
8.539990
20
254.839000
11
8.564980
21
254.778654
0
LINE
8
1
10
8.564980
20
254.778654
11
8.625323
21
254.753656
0
LINE
8
1
10
8.541000
20
254.839000
11
8.541000
21
256.888000
0
LINE
8
1
10
8.541000
20
256.888000
11
4.358750
21
256.888000
0
LINE
8
1
10
4.273330
20
256.972000
11
4.358663
21
256.886684
0
LINE
8
1
10
4.274370
20
256.972000
11
4.274370
21
261.239000
0
LINE
8
1
10
4.358660
20
261.324000
11
4.298317
21
261.299002
0
LINE
8
1
10
4.298317
20
261.299002
11
4.273327
21
261.238656
0
LINE
8
1
10
4.358750
20
261.324000
11
8.541000
21
261.324000
0
LINE
8
1
10
8.541000
20
261.324000
11
8.541000
21
270.754000
0
LINE
8
1
10
8.541000
20
270.754000
11
4.358750
21
270.754000
0
LINE
8
1
10
4.273330
20
270.839000
11
4.358663
21
270.753667
0
LINE
8
1
10
4.274370
20
270.839000
11
4.274370
21
275.106000
0
LINE
8
1
10
4.358660
20
275.191000
11
4.273327
21
275.105667
0
LINE
8
1
10
4.358750
20
275.191000
11
8.541000
21
275.191000
0
LINE
8
1
10
8.541000
20
275.191000
11
8.541000
21
277.239000
0
LINE
8
1
10
8.625320
20
277.324000
11
8.564980
21
277.299005
0
LINE
8
1
10
8.564980
20
277.299005
11
8.539987
21
277.238665
0
LINE
8
1
10
8.625380
20
277.324000
11
115.292000
21
277.324000
0
LINE
8
1
10
115.377000
20
277.239000
11
115.352006
21
277.299342
0
LINE
8
1
10
115.352006
20
277.299342
11
115.291664
21
277.324335
0
LINE
8
1
10
115.377000
20
277.239000
11
115.377000
21
275.191000
0
LINE
8
1
10
115.377000
20
275.191000
11
119.559000
21
275.191000
0
LINE
8
1
10
119.644000
20
275.106000
11
119.558667
21
275.191333
0
LINE
8
1
10
119.644000
20
275.106000
11
119.644000
21
270.839000
0
LINE
8
1
10
119.559000
20
270.754000
11
119.644333
21
270.839333
0
LINE
8
1
10
119.559000
20
270.754000
11
115.377000
21
270.754000
0
LINE
8
1
10
115.377000
20
270.754000
11
115.377000
21
261.324000
0
LINE
8
1
10
115.377000
20
261.324000
11
119.559000
21
261.324000
0
LINE
8
1
10
119.644000
20
261.239000
11
119.619010
21
261.299346
0
LINE
8
1
10
119.619010
20
261.299346
11
119.558667
21
261.324344
0
LINE
8
1
10
119.644000
20
261.239000
11
119.644000
21
256.972000
0
LINE
8
1
10
119.559000
20
256.887000
11
119.644333
21
256.972316
0
LINE
8
1
10
119.559000
20
256.888000
11
115.377000
21
256.888000
0
LINE
8
1
10
115.377000
20
256.888000
11
115.377000
21
254.839000
0
LINE
8
1
10
115.292000
20
254.754000
11
115.352345
21
254.778996
0
LINE
8
1
10
115.352345
20
254.778996
11
115.377336
21
254.839344
0
LINE
8
1
10
115.292000
20
254.754000
11
42.068400
21
254.754000
 0 
ENDSEC
 0 
EOF